<?xml version="1.0" standalone="no"?>
<!DOCTYPE svg PUBLIC "-//W3C//DTD SVG 20010904//EN"
 "http://www.w3.org/TR/2001/REC-SVG-20010904/DTD/svg10.dtd">
<svg version="1.0" xmlns="http://www.w3.org/2000/svg"
 width="16.000000pt" height="16.000000pt" viewBox="0 0 16.000000 16.000000"
 preserveAspectRatio="xMidYMid meet">
<metadata>
Created by potrace 1.11, written by Peter Selinger 2001-2013
</metadata>
<g transform="translate(0.000000,16.000000) scale(0.003200,-0.003200)"
fill="#000000" stroke="none">
<path d="M2309 4947 c-2 -3 -35 -7 -74 -11 -314 -28 -723 -163 -983 -325 -663
-411 -1085 -1050 -1184 -1791 -14 -105 -17 -475 -5 -585 8 -76 11 -96 33 -225
10 -53 65 -249 93 -330 142 -405 409 -787 751 -1072 56 -47 173 -133 205 -151
7 -3 10 232 9 706 -1 392 -2 715 -3 719 0 4 -56 6 -123 5 l-123 -2 0 -482 c0
-266 -2 -483 -5 -483 -9 1 -200 260 -211 285 -2 6 -30 50 -62 98 -178 271
-295 594 -332 917 -13 115 -14 138 -15 265 -1 269 35 493 120 744 212 628 711
1143 1333 1375 95 36 297 92 367 102 19 3 42 7 50 9 8 2 47 7 85 11 39 3 79 8
90 10 26 6 323 5 355 0 14 -2 53 -7 88 -11 348 -34 767 -204 1067 -434 94 -71
122 -97 240 -216 368 -370 599 -873 640 -1395 6 -80 6 -288 0 -355 -8 -91 -15
-150 -20 -175 -2 -13 -7 -42 -11 -65 -3 -22 -16 -80 -29 -130 -84 -325 -226
-600 -484 -940 l-76 -100 -3 487 -2 486 -119 1 c-88 1 -120 -2 -123 -11 -4
-11 -3 -1417 1 -1426 0 -1 36 23 79 54 448 330 763 768 915 1274 82 272 107
459 102 760 -1 118 -5 226 -8 240 -3 14 -8 48 -12 75 -18 151 -79 378 -146
548 -249 625 -767 1143 -1379 1376 -47 18 -94 37 -105 41 -95 39 -356 99 -505
116 -64 7 -474 16 -481 11z"/>
<path d="M2330 4289 c-91 -71 -178 -139 -194 -152 -151 -116 -234 -181 -251
-196 -11 -9 -46 -36 -78 -60 l-57 -44 26 -36 c27 -36 91 -119 104 -134 4 -4
72 42 151 103 390 301 461 355 470 355 5 0 141 -102 302 -227 162 -125 299
-228 305 -230 6 -2 40 35 76 82 51 66 63 87 53 96 -7 6 -149 118 -317 248
-168 130 -312 242 -320 249 -58 46 -98 77 -101 76 -2 0 -78 -58 -169 -130z"/>
<path d="M1886 3480 c-1 -3 -2 -758 -2 -1679 l1 -1674 45 -13 c25 -8 72 -19
105 -24 33 -6 68 -13 78 -16 16 -5 17 81 17 1700 0 938 -3 1706 -7 1707 -37 3
-235 3 -237 -1z"/>
<path d="M2399 3480 l-24 -5 0 -1710 0 -1710 120 0 120 0 3 1713 c1 941 -1
1712 -5 1713 -42 3 -195 3 -214 -1z"/>
<path d="M2877 3478 c-9 -5 -12 -434 -12 -1708 l0 -1700 28 4 c16 2 71 15 123
27 l94 23 0 1678 c0 923 -3 1678 -7 1679 -41 5 -218 2 -226 -3z"/>
<path d="M1399 1882 c-1 -4 -2 -359 -3 -790 l-1 -783 55 -25 c30 -15 85 -39
123 -55 l67 -28 0 844 0 843 -120 1 c-66 0 -121 -3 -121 -7z"/>
<path d="M3365 1882 c-11 -7 -15 -1665 -4 -1676 3 -3 23 2 45 13 21 10 75 35
119 55 l80 37 -1 782 c-1 430 -2 785 -3 790 -1 9 -223 9 -236 -1z"/>
</g>
</svg>
